%TF.GenerationSoftware,KiCad,Pcbnew,8.0.6*%
%TF.CreationDate,2024-11-12T11:26:50-05:00*%
%TF.ProjectId,Lab8 Schematic,4c616238-2053-4636-9865-6d617469632e,rev?*%
%TF.SameCoordinates,Original*%
%TF.FileFunction,Legend,Top*%
%TF.FilePolarity,Positive*%
%FSLAX46Y46*%
G04 Gerber Fmt 4.6, Leading zero omitted, Abs format (unit mm)*
G04 Created by KiCad (PCBNEW 8.0.6) date 2024-11-12 11:26:50*
%MOMM*%
%LPD*%
G01*
G04 APERTURE LIST*
%ADD10C,0.150000*%
%ADD11C,0.120000*%
G04 APERTURE END LIST*
D10*
X141833333Y-59987080D02*
X141785714Y-60034700D01*
X141785714Y-60034700D02*
X141642857Y-60082319D01*
X141642857Y-60082319D02*
X141547619Y-60082319D01*
X141547619Y-60082319D02*
X141404762Y-60034700D01*
X141404762Y-60034700D02*
X141309524Y-59939461D01*
X141309524Y-59939461D02*
X141261905Y-59844223D01*
X141261905Y-59844223D02*
X141214286Y-59653747D01*
X141214286Y-59653747D02*
X141214286Y-59510890D01*
X141214286Y-59510890D02*
X141261905Y-59320414D01*
X141261905Y-59320414D02*
X141309524Y-59225176D01*
X141309524Y-59225176D02*
X141404762Y-59129938D01*
X141404762Y-59129938D02*
X141547619Y-59082319D01*
X141547619Y-59082319D02*
X141642857Y-59082319D01*
X141642857Y-59082319D02*
X141785714Y-59129938D01*
X141785714Y-59129938D02*
X141833333Y-59177557D01*
X142214286Y-59177557D02*
X142261905Y-59129938D01*
X142261905Y-59129938D02*
X142357143Y-59082319D01*
X142357143Y-59082319D02*
X142595238Y-59082319D01*
X142595238Y-59082319D02*
X142690476Y-59129938D01*
X142690476Y-59129938D02*
X142738095Y-59177557D01*
X142738095Y-59177557D02*
X142785714Y-59272795D01*
X142785714Y-59272795D02*
X142785714Y-59368033D01*
X142785714Y-59368033D02*
X142738095Y-59510890D01*
X142738095Y-59510890D02*
X142166667Y-60082319D01*
X142166667Y-60082319D02*
X142785714Y-60082319D01*
X118333333Y-53732080D02*
X118285714Y-53779700D01*
X118285714Y-53779700D02*
X118142857Y-53827319D01*
X118142857Y-53827319D02*
X118047619Y-53827319D01*
X118047619Y-53827319D02*
X117904762Y-53779700D01*
X117904762Y-53779700D02*
X117809524Y-53684461D01*
X117809524Y-53684461D02*
X117761905Y-53589223D01*
X117761905Y-53589223D02*
X117714286Y-53398747D01*
X117714286Y-53398747D02*
X117714286Y-53255890D01*
X117714286Y-53255890D02*
X117761905Y-53065414D01*
X117761905Y-53065414D02*
X117809524Y-52970176D01*
X117809524Y-52970176D02*
X117904762Y-52874938D01*
X117904762Y-52874938D02*
X118047619Y-52827319D01*
X118047619Y-52827319D02*
X118142857Y-52827319D01*
X118142857Y-52827319D02*
X118285714Y-52874938D01*
X118285714Y-52874938D02*
X118333333Y-52922557D01*
X119285714Y-53827319D02*
X118714286Y-53827319D01*
X119000000Y-53827319D02*
X119000000Y-52827319D01*
X119000000Y-52827319D02*
X118904762Y-52970176D01*
X118904762Y-52970176D02*
X118809524Y-53065414D01*
X118809524Y-53065414D02*
X118714286Y-53113033D01*
X161758333Y-55084819D02*
X161425000Y-54608628D01*
X161186905Y-55084819D02*
X161186905Y-54084819D01*
X161186905Y-54084819D02*
X161567857Y-54084819D01*
X161567857Y-54084819D02*
X161663095Y-54132438D01*
X161663095Y-54132438D02*
X161710714Y-54180057D01*
X161710714Y-54180057D02*
X161758333Y-54275295D01*
X161758333Y-54275295D02*
X161758333Y-54418152D01*
X161758333Y-54418152D02*
X161710714Y-54513390D01*
X161710714Y-54513390D02*
X161663095Y-54561009D01*
X161663095Y-54561009D02*
X161567857Y-54608628D01*
X161567857Y-54608628D02*
X161186905Y-54608628D01*
X162663095Y-54084819D02*
X162186905Y-54084819D01*
X162186905Y-54084819D02*
X162139286Y-54561009D01*
X162139286Y-54561009D02*
X162186905Y-54513390D01*
X162186905Y-54513390D02*
X162282143Y-54465771D01*
X162282143Y-54465771D02*
X162520238Y-54465771D01*
X162520238Y-54465771D02*
X162615476Y-54513390D01*
X162615476Y-54513390D02*
X162663095Y-54561009D01*
X162663095Y-54561009D02*
X162710714Y-54656247D01*
X162710714Y-54656247D02*
X162710714Y-54894342D01*
X162710714Y-54894342D02*
X162663095Y-54989580D01*
X162663095Y-54989580D02*
X162615476Y-55037200D01*
X162615476Y-55037200D02*
X162520238Y-55084819D01*
X162520238Y-55084819D02*
X162282143Y-55084819D01*
X162282143Y-55084819D02*
X162186905Y-55037200D01*
X162186905Y-55037200D02*
X162139286Y-54989580D01*
X159084819Y-38241666D02*
X158608628Y-38574999D01*
X159084819Y-38813094D02*
X158084819Y-38813094D01*
X158084819Y-38813094D02*
X158084819Y-38432142D01*
X158084819Y-38432142D02*
X158132438Y-38336904D01*
X158132438Y-38336904D02*
X158180057Y-38289285D01*
X158180057Y-38289285D02*
X158275295Y-38241666D01*
X158275295Y-38241666D02*
X158418152Y-38241666D01*
X158418152Y-38241666D02*
X158513390Y-38289285D01*
X158513390Y-38289285D02*
X158561009Y-38336904D01*
X158561009Y-38336904D02*
X158608628Y-38432142D01*
X158608628Y-38432142D02*
X158608628Y-38813094D01*
X158418152Y-37384523D02*
X159084819Y-37384523D01*
X158037200Y-37622618D02*
X158751485Y-37860713D01*
X158751485Y-37860713D02*
X158751485Y-37241666D01*
X141103333Y-68324819D02*
X140770000Y-67848628D01*
X140531905Y-68324819D02*
X140531905Y-67324819D01*
X140531905Y-67324819D02*
X140912857Y-67324819D01*
X140912857Y-67324819D02*
X141008095Y-67372438D01*
X141008095Y-67372438D02*
X141055714Y-67420057D01*
X141055714Y-67420057D02*
X141103333Y-67515295D01*
X141103333Y-67515295D02*
X141103333Y-67658152D01*
X141103333Y-67658152D02*
X141055714Y-67753390D01*
X141055714Y-67753390D02*
X141008095Y-67801009D01*
X141008095Y-67801009D02*
X140912857Y-67848628D01*
X140912857Y-67848628D02*
X140531905Y-67848628D01*
X141436667Y-67324819D02*
X142055714Y-67324819D01*
X142055714Y-67324819D02*
X141722381Y-67705771D01*
X141722381Y-67705771D02*
X141865238Y-67705771D01*
X141865238Y-67705771D02*
X141960476Y-67753390D01*
X141960476Y-67753390D02*
X142008095Y-67801009D01*
X142008095Y-67801009D02*
X142055714Y-67896247D01*
X142055714Y-67896247D02*
X142055714Y-68134342D01*
X142055714Y-68134342D02*
X142008095Y-68229580D01*
X142008095Y-68229580D02*
X141960476Y-68277200D01*
X141960476Y-68277200D02*
X141865238Y-68324819D01*
X141865238Y-68324819D02*
X141579524Y-68324819D01*
X141579524Y-68324819D02*
X141484286Y-68277200D01*
X141484286Y-68277200D02*
X141436667Y-68229580D01*
X141103333Y-46584819D02*
X140770000Y-46108628D01*
X140531905Y-46584819D02*
X140531905Y-45584819D01*
X140531905Y-45584819D02*
X140912857Y-45584819D01*
X140912857Y-45584819D02*
X141008095Y-45632438D01*
X141008095Y-45632438D02*
X141055714Y-45680057D01*
X141055714Y-45680057D02*
X141103333Y-45775295D01*
X141103333Y-45775295D02*
X141103333Y-45918152D01*
X141103333Y-45918152D02*
X141055714Y-46013390D01*
X141055714Y-46013390D02*
X141008095Y-46061009D01*
X141008095Y-46061009D02*
X140912857Y-46108628D01*
X140912857Y-46108628D02*
X140531905Y-46108628D01*
X141484286Y-45680057D02*
X141531905Y-45632438D01*
X141531905Y-45632438D02*
X141627143Y-45584819D01*
X141627143Y-45584819D02*
X141865238Y-45584819D01*
X141865238Y-45584819D02*
X141960476Y-45632438D01*
X141960476Y-45632438D02*
X142008095Y-45680057D01*
X142008095Y-45680057D02*
X142055714Y-45775295D01*
X142055714Y-45775295D02*
X142055714Y-45870533D01*
X142055714Y-45870533D02*
X142008095Y-46013390D01*
X142008095Y-46013390D02*
X141436667Y-46584819D01*
X141436667Y-46584819D02*
X142055714Y-46584819D01*
X118824819Y-66896666D02*
X118348628Y-67229999D01*
X118824819Y-67468094D02*
X117824819Y-67468094D01*
X117824819Y-67468094D02*
X117824819Y-67087142D01*
X117824819Y-67087142D02*
X117872438Y-66991904D01*
X117872438Y-66991904D02*
X117920057Y-66944285D01*
X117920057Y-66944285D02*
X118015295Y-66896666D01*
X118015295Y-66896666D02*
X118158152Y-66896666D01*
X118158152Y-66896666D02*
X118253390Y-66944285D01*
X118253390Y-66944285D02*
X118301009Y-66991904D01*
X118301009Y-66991904D02*
X118348628Y-67087142D01*
X118348628Y-67087142D02*
X118348628Y-67468094D01*
X118824819Y-65944285D02*
X118824819Y-66515713D01*
X118824819Y-66229999D02*
X117824819Y-66229999D01*
X117824819Y-66229999D02*
X117967676Y-66325237D01*
X117967676Y-66325237D02*
X118062914Y-66420475D01*
X118062914Y-66420475D02*
X118110533Y-66515713D01*
X127048095Y-52094819D02*
X127048095Y-52904342D01*
X127048095Y-52904342D02*
X127095714Y-52999580D01*
X127095714Y-52999580D02*
X127143333Y-53047200D01*
X127143333Y-53047200D02*
X127238571Y-53094819D01*
X127238571Y-53094819D02*
X127429047Y-53094819D01*
X127429047Y-53094819D02*
X127524285Y-53047200D01*
X127524285Y-53047200D02*
X127571904Y-52999580D01*
X127571904Y-52999580D02*
X127619523Y-52904342D01*
X127619523Y-52904342D02*
X127619523Y-52094819D01*
X128048095Y-52190057D02*
X128095714Y-52142438D01*
X128095714Y-52142438D02*
X128190952Y-52094819D01*
X128190952Y-52094819D02*
X128429047Y-52094819D01*
X128429047Y-52094819D02*
X128524285Y-52142438D01*
X128524285Y-52142438D02*
X128571904Y-52190057D01*
X128571904Y-52190057D02*
X128619523Y-52285295D01*
X128619523Y-52285295D02*
X128619523Y-52380533D01*
X128619523Y-52380533D02*
X128571904Y-52523390D01*
X128571904Y-52523390D02*
X128000476Y-53094819D01*
X128000476Y-53094819D02*
X128619523Y-53094819D01*
X103738095Y-53704819D02*
X103738095Y-54514342D01*
X103738095Y-54514342D02*
X103785714Y-54609580D01*
X103785714Y-54609580D02*
X103833333Y-54657200D01*
X103833333Y-54657200D02*
X103928571Y-54704819D01*
X103928571Y-54704819D02*
X104119047Y-54704819D01*
X104119047Y-54704819D02*
X104214285Y-54657200D01*
X104214285Y-54657200D02*
X104261904Y-54609580D01*
X104261904Y-54609580D02*
X104309523Y-54514342D01*
X104309523Y-54514342D02*
X104309523Y-53704819D01*
X105214285Y-54038152D02*
X105214285Y-54704819D01*
X104976190Y-53657200D02*
X104738095Y-54371485D01*
X104738095Y-54371485D02*
X105357142Y-54371485D01*
X102928095Y-51404819D02*
X102928095Y-52214342D01*
X102928095Y-52214342D02*
X102975714Y-52309580D01*
X102975714Y-52309580D02*
X103023333Y-52357200D01*
X103023333Y-52357200D02*
X103118571Y-52404819D01*
X103118571Y-52404819D02*
X103309047Y-52404819D01*
X103309047Y-52404819D02*
X103404285Y-52357200D01*
X103404285Y-52357200D02*
X103451904Y-52309580D01*
X103451904Y-52309580D02*
X103499523Y-52214342D01*
X103499523Y-52214342D02*
X103499523Y-51404819D01*
X104499523Y-52404819D02*
X103928095Y-52404819D01*
X104213809Y-52404819D02*
X104213809Y-51404819D01*
X104213809Y-51404819D02*
X104118571Y-51547676D01*
X104118571Y-51547676D02*
X104023333Y-51642914D01*
X104023333Y-51642914D02*
X103928095Y-51690533D01*
X152238095Y-52094819D02*
X152238095Y-52904342D01*
X152238095Y-52904342D02*
X152285714Y-52999580D01*
X152285714Y-52999580D02*
X152333333Y-53047200D01*
X152333333Y-53047200D02*
X152428571Y-53094819D01*
X152428571Y-53094819D02*
X152619047Y-53094819D01*
X152619047Y-53094819D02*
X152714285Y-53047200D01*
X152714285Y-53047200D02*
X152761904Y-52999580D01*
X152761904Y-52999580D02*
X152809523Y-52904342D01*
X152809523Y-52904342D02*
X152809523Y-52094819D01*
X153190476Y-52094819D02*
X153809523Y-52094819D01*
X153809523Y-52094819D02*
X153476190Y-52475771D01*
X153476190Y-52475771D02*
X153619047Y-52475771D01*
X153619047Y-52475771D02*
X153714285Y-52523390D01*
X153714285Y-52523390D02*
X153761904Y-52571009D01*
X153761904Y-52571009D02*
X153809523Y-52666247D01*
X153809523Y-52666247D02*
X153809523Y-52904342D01*
X153809523Y-52904342D02*
X153761904Y-52999580D01*
X153761904Y-52999580D02*
X153714285Y-53047200D01*
X153714285Y-53047200D02*
X153619047Y-53094819D01*
X153619047Y-53094819D02*
X153333333Y-53094819D01*
X153333333Y-53094819D02*
X153238095Y-53047200D01*
X153238095Y-53047200D02*
X153190476Y-52999580D01*
X174424819Y-46238094D02*
X173424819Y-46238094D01*
X173424819Y-46238094D02*
X173424819Y-45999999D01*
X173424819Y-45999999D02*
X173472438Y-45857142D01*
X173472438Y-45857142D02*
X173567676Y-45761904D01*
X173567676Y-45761904D02*
X173662914Y-45714285D01*
X173662914Y-45714285D02*
X173853390Y-45666666D01*
X173853390Y-45666666D02*
X173996247Y-45666666D01*
X173996247Y-45666666D02*
X174186723Y-45714285D01*
X174186723Y-45714285D02*
X174281961Y-45761904D01*
X174281961Y-45761904D02*
X174377200Y-45857142D01*
X174377200Y-45857142D02*
X174424819Y-45999999D01*
X174424819Y-45999999D02*
X174424819Y-46238094D01*
X174424819Y-44714285D02*
X174424819Y-45285713D01*
X174424819Y-44999999D02*
X173424819Y-44999999D01*
X173424819Y-44999999D02*
X173567676Y-45095237D01*
X173567676Y-45095237D02*
X173662914Y-45190475D01*
X173662914Y-45190475D02*
X173710533Y-45285713D01*
X174054819Y-40681904D02*
X173054819Y-40681904D01*
X174054819Y-40110476D02*
X173483390Y-40539047D01*
X173054819Y-40110476D02*
X173626247Y-40681904D01*
X174424819Y-63738094D02*
X173424819Y-63738094D01*
X173424819Y-63738094D02*
X173424819Y-63499999D01*
X173424819Y-63499999D02*
X173472438Y-63357142D01*
X173472438Y-63357142D02*
X173567676Y-63261904D01*
X173567676Y-63261904D02*
X173662914Y-63214285D01*
X173662914Y-63214285D02*
X173853390Y-63166666D01*
X173853390Y-63166666D02*
X173996247Y-63166666D01*
X173996247Y-63166666D02*
X174186723Y-63214285D01*
X174186723Y-63214285D02*
X174281961Y-63261904D01*
X174281961Y-63261904D02*
X174377200Y-63357142D01*
X174377200Y-63357142D02*
X174424819Y-63499999D01*
X174424819Y-63499999D02*
X174424819Y-63738094D01*
X173520057Y-62785713D02*
X173472438Y-62738094D01*
X173472438Y-62738094D02*
X173424819Y-62642856D01*
X173424819Y-62642856D02*
X173424819Y-62404761D01*
X173424819Y-62404761D02*
X173472438Y-62309523D01*
X173472438Y-62309523D02*
X173520057Y-62261904D01*
X173520057Y-62261904D02*
X173615295Y-62214285D01*
X173615295Y-62214285D02*
X173710533Y-62214285D01*
X173710533Y-62214285D02*
X173853390Y-62261904D01*
X173853390Y-62261904D02*
X174424819Y-62833332D01*
X174424819Y-62833332D02*
X174424819Y-62214285D01*
X174054819Y-58181904D02*
X173054819Y-58181904D01*
X174054819Y-57610476D02*
X173483390Y-58039047D01*
X173054819Y-57610476D02*
X173626247Y-58181904D01*
D11*
%TO.C,C2*%
X148870000Y-58457500D02*
X147370000Y-58457500D01*
X148260000Y-56257500D02*
X147120000Y-56257500D01*
X148120000Y-59207500D02*
X148120000Y-57707500D01*
X147120000Y-58627500D02*
X147120000Y-53887500D01*
X147120000Y-58627500D02*
X145620000Y-58627500D01*
X147120000Y-53887500D02*
X145620000Y-53887500D01*
X145620000Y-58627500D02*
X144870000Y-57877500D01*
X145620000Y-53887500D02*
X144870000Y-54637500D01*
X144870000Y-57877500D02*
X144120000Y-58627500D01*
X144870000Y-54637500D02*
X144120000Y-53887500D01*
X144120000Y-58627500D02*
X136880000Y-58627500D01*
X144120000Y-53887500D02*
X136880000Y-53887500D01*
X136880000Y-58627500D02*
X136880000Y-53887500D01*
X135740000Y-56257500D02*
X136880000Y-56257500D01*
%TO.C,C1*%
X111630000Y-54542500D02*
X113130000Y-54542500D01*
X112240000Y-56742500D02*
X113380000Y-56742500D01*
X112380000Y-53792500D02*
X112380000Y-55292500D01*
X113380000Y-54372500D02*
X113380000Y-59112500D01*
X113380000Y-54372500D02*
X114880000Y-54372500D01*
X113380000Y-59112500D02*
X114880000Y-59112500D01*
X114880000Y-54372500D02*
X115630000Y-55122500D01*
X114880000Y-59112500D02*
X115630000Y-58362500D01*
X115630000Y-55122500D02*
X116380000Y-54372500D01*
X115630000Y-58362500D02*
X116380000Y-59112500D01*
X116380000Y-54372500D02*
X123620000Y-54372500D01*
X116380000Y-59112500D02*
X123620000Y-59112500D01*
X123620000Y-54372500D02*
X123620000Y-59112500D01*
X124760000Y-56742500D02*
X123620000Y-56742500D01*
%TO.C,R5*%
X162025000Y-57000000D02*
X162095000Y-57000000D01*
X162025000Y-57000000D02*
G75*
G02*
X159285000Y-57000000I-1370000J0D01*
G01*
X159285000Y-57000000D02*
G75*
G02*
X162025000Y-57000000I1370000J0D01*
G01*
%TO.C,R4*%
X161000000Y-37975000D02*
X161000000Y-37905000D01*
X162370000Y-39345000D02*
G75*
G02*
X159630000Y-39345000I-1370000J0D01*
G01*
X159630000Y-39345000D02*
G75*
G02*
X162370000Y-39345000I1370000J0D01*
G01*
%TO.C,R3*%
X143910000Y-65500000D02*
G75*
G02*
X141170000Y-65500000I-1370000J0D01*
G01*
X141170000Y-65500000D02*
G75*
G02*
X143910000Y-65500000I1370000J0D01*
G01*
X141170000Y-65500000D02*
X141100000Y-65500000D01*
%TO.C,R2*%
X141370000Y-48500000D02*
X141440000Y-48500000D01*
X141370000Y-48500000D02*
G75*
G02*
X138630000Y-48500000I-1370000J0D01*
G01*
X138630000Y-48500000D02*
G75*
G02*
X141370000Y-48500000I1370000J0D01*
G01*
%TO.C,R1*%
X116000000Y-66830000D02*
X116000000Y-66900000D01*
X117370000Y-65460000D02*
G75*
G02*
X114630000Y-65460000I-1370000J0D01*
G01*
X114630000Y-65460000D02*
G75*
G02*
X117370000Y-65460000I1370000J0D01*
G01*
%TO.C,U2*%
X122670000Y-41300000D02*
X122670000Y-51700000D01*
X122670000Y-51700000D02*
X132950000Y-51700000D01*
X125160000Y-41360000D02*
X125160000Y-51640000D01*
X125160000Y-51640000D02*
X126810000Y-51640000D01*
X128810000Y-51640000D02*
X130460000Y-51640000D01*
X130460000Y-41360000D02*
X125160000Y-41360000D01*
X130460000Y-51640000D02*
X130460000Y-41360000D01*
X132950000Y-41300000D02*
X122670000Y-41300000D01*
X132950000Y-51700000D02*
X132950000Y-41300000D01*
X126810000Y-51640000D02*
G75*
G02*
X128810000Y-51640000I1000000J0D01*
G01*
%TO.C,U4*%
X102190000Y-55090000D02*
X102190000Y-55305000D01*
X102190000Y-57910000D02*
X102190000Y-57695000D01*
X104500000Y-55090000D02*
X102190000Y-55090000D01*
X104500000Y-55090000D02*
X106810000Y-55090000D01*
X104500000Y-57910000D02*
X102190000Y-57910000D01*
X104500000Y-57910000D02*
X106810000Y-57910000D01*
X106810000Y-55090000D02*
X106810000Y-55305000D01*
X106810000Y-57910000D02*
X106810000Y-57695000D01*
X101400000Y-55305000D02*
X101160000Y-54975000D01*
X101640000Y-54975000D01*
X101400000Y-55305000D01*
G36*
X101400000Y-55305000D02*
G01*
X101160000Y-54975000D01*
X101640000Y-54975000D01*
X101400000Y-55305000D01*
G37*
%TO.C,U1*%
X98550000Y-40610000D02*
X98550000Y-51010000D01*
X98550000Y-51010000D02*
X108830000Y-51010000D01*
X101040000Y-40670000D02*
X101040000Y-50950000D01*
X101040000Y-50950000D02*
X102690000Y-50950000D01*
X104690000Y-50950000D02*
X106340000Y-50950000D01*
X106340000Y-40670000D02*
X101040000Y-40670000D01*
X106340000Y-50950000D02*
X106340000Y-40670000D01*
X108830000Y-40610000D02*
X98550000Y-40610000D01*
X108830000Y-51010000D02*
X108830000Y-40610000D01*
X102690000Y-50950000D02*
G75*
G02*
X104690000Y-50950000I1000000J0D01*
G01*
%TO.C,U3*%
X147860000Y-41300000D02*
X147860000Y-51700000D01*
X147860000Y-51700000D02*
X158140000Y-51700000D01*
X150350000Y-41360000D02*
X150350000Y-51640000D01*
X150350000Y-51640000D02*
X152000000Y-51640000D01*
X154000000Y-51640000D02*
X155650000Y-51640000D01*
X155650000Y-41360000D02*
X150350000Y-41360000D01*
X155650000Y-51640000D02*
X155650000Y-41360000D01*
X158140000Y-41300000D02*
X147860000Y-41300000D01*
X158140000Y-51700000D02*
X158140000Y-41300000D01*
X152000000Y-51640000D02*
G75*
G02*
X154000000Y-51640000I1000000J0D01*
G01*
%TO.C,D1*%
X170030000Y-42780000D02*
X170030000Y-48220000D01*
X170030000Y-48220000D02*
X172970000Y-48220000D01*
X171500000Y-41760000D02*
X171500000Y-42780000D01*
X171500000Y-49240000D02*
X171500000Y-48220000D01*
X172970000Y-42780000D02*
X170030000Y-42780000D01*
X172970000Y-43560000D02*
X170030000Y-43560000D01*
X172970000Y-43680000D02*
X170030000Y-43680000D01*
X172970000Y-43800000D02*
X170030000Y-43800000D01*
X172970000Y-48220000D02*
X172970000Y-42780000D01*
%TO.C,D2*%
X170030000Y-60280000D02*
X170030000Y-65720000D01*
X170030000Y-65720000D02*
X172970000Y-65720000D01*
X171500000Y-59260000D02*
X171500000Y-60280000D01*
X171500000Y-66740000D02*
X171500000Y-65720000D01*
X172970000Y-60280000D02*
X170030000Y-60280000D01*
X172970000Y-61060000D02*
X170030000Y-61060000D01*
X172970000Y-61180000D02*
X170030000Y-61180000D01*
X172970000Y-61300000D02*
X170030000Y-61300000D01*
X172970000Y-65720000D02*
X172970000Y-60280000D01*
%TD*%
M02*
